<svg width="14" height="16" viewBox="0 0 14 16" fill="currentColor" xmlns="http://www.w3.org/2000/svg">
<path d="M12.355 8.702C12.382 8.477 12.4 8.243 12.4 8C12.4 7.757 12.382 7.523 12.346 7.298L13.867 6.11C14.002 6.002 14.038 5.804 13.957 5.651L12.517 3.158C12.427 2.996 12.238 2.942 12.076 2.996L10.285 3.716C9.90702 3.428 9.51102 3.194 9.07002 3.014L8.80002 1.106C8.77302 0.925999 8.62002 0.799999 8.44002 0.799999H5.56002C5.38002 0.799999 5.23602 0.925999 5.20902 1.106L4.93902 3.014C4.49802 3.194 4.09302 3.437 3.72402 3.716L1.93302 2.996C1.77102 2.933 1.58202 2.996 1.49202 3.158L0.0520189 5.651C-0.0379811 5.813 -0.00198095 6.002 0.142019 6.11L1.66302 7.298C1.62702 7.523 1.60002 7.766 1.60002 8C1.60002 8.234 1.61802 8.477 1.65402 8.702L0.133019 9.89C-0.00198117 9.998 -0.0379811 10.196 0.0430189 10.349L1.48302 12.842C1.57302 13.004 1.76202 13.058 1.92402 13.004L3.71502 12.284C4.09302 12.572 4.48902 12.806 4.93002 12.986L5.20002 14.894C5.23602 15.074 5.38002 15.2 5.56002 15.2H8.44002C8.62002 15.2 8.77302 15.074 8.79102 14.894L9.06102 12.986C9.50202 12.806 9.90702 12.563 10.276 12.284L12.067 13.004C12.229 13.067 12.418 13.004 12.508 12.842L13.948 10.349C14.038 10.187 14.002 9.998 13.858 9.89L12.355 8.702ZM7.00002 10.7C5.51502 10.7 4.30002 9.485 4.30002 8C4.30002 6.515 5.51502 5.3 7.00002 5.3C8.48502 5.3 9.70002 6.515 9.70002 8C9.70002 9.485 8.48502 10.7 7.00002 10.7Z" fill="currentColor"/>
</svg>
